<svg width="978" height="253" viewBox="0 0 978 253" fill="none" xmlns="http://www.w3.org/2000/svg">
<rect width="253" height="253" fill="#FF8241"/>
<path d="M228.541 145.953C228.541 141.389 223.97 138.326 220.795 135.459C216.621 131.684 212.442 127.909 208.263 124.135C205.039 121.221 201.82 118.308 198.596 115.394C198.349 115.172 198.103 114.951 197.856 114.729C196.44 113.445 195.061 111.939 193.446 110.877C192.1 110.011 190.48 109.5 188.741 109.5C187.374 109.5 186.091 109.809 184.954 110.366L184.192 110.789L180.582 112.79L115.263 149.041C112.656 150.49 110.087 152.429 106.943 152.429C105.135 152.429 103.354 151.857 101.9 150.82C101.884 150.81 101.868 150.795 101.852 150.784C99.9959 149.583 98.3436 147.855 96.6484 146.437L88.4406 139.579L58.3831 114.466C58.2705 114.368 58.1632 114.275 58.0505 114.187C56.5967 113.043 54.7406 112.357 52.7182 112.357C49.9554 112.357 47.5092 113.636 45.9749 115.611C45.9642 115.621 45.9535 115.631 45.9481 115.647L45.6048 116.126C45.6048 116.126 26.7752 142.451 26.7699 142.461L26.2656 143.163C26.2656 143.163 26.2602 143.173 26.2549 143.178C25.4931 144.4 25.0479 145.834 25.0479 147.365C25.0479 149.743 26.1154 151.878 27.8106 153.363C27.9072 153.45 28.0091 153.533 28.1164 153.615L50.3041 172.159L59.6062 179.93L67.8945 186.855L97.6891 211.747C100.151 213.804 102.56 216.419 105.961 216.81C106.294 216.847 106.626 216.867 106.97 216.867C110.049 216.867 113 214.774 115.639 213.309C118.498 211.721 121.357 210.138 124.217 208.549C128.213 206.332 132.205 204.115 136.201 201.897C140.976 199.247 145.745 196.601 150.514 193.956C155.696 191.079 160.878 188.201 166.06 185.329C171.285 182.426 176.516 179.528 181.741 176.624C186.649 173.897 191.563 171.174 196.472 168.446C200.704 166.1 204.932 163.753 209.164 161.407C212.351 159.638 215.532 157.87 218.719 156.101C220.5 155.116 222.275 154.126 224.051 153.141C224.298 153.007 224.544 152.868 224.791 152.728L224.77 152.708C227.044 151.254 228.541 148.773 228.541 145.953ZM213.96 147.216C213.96 147.216 213.944 147.226 213.939 147.231L213.628 147.402L212.045 148.278L144.033 186.025L113.107 203.192C112.313 203.635 111.519 204.073 110.725 204.517C109.851 205.002 109.062 205.522 107.828 205.151C106.696 204.806 105.961 203.749 105.961 202.609V173.85C105.961 172.432 105.961 171.014 105.961 169.591C105.961 168.286 105.854 167.064 106.61 165.914C107.394 164.723 108.853 164.135 110.076 163.434C114.534 160.897 119.088 158.509 123.546 155.962C123.975 155.73 124.399 155.492 124.823 155.255C125.987 154.611 127.157 153.961 128.321 153.316C130.075 152.342 131.829 151.367 133.583 150.398C135.761 149.186 137.945 147.974 140.123 146.767C142.58 145.406 145.031 144.045 147.483 142.683C150.052 141.26 152.617 139.832 155.186 138.408C157.708 137.006 160.234 135.608 162.761 134.206C165.084 132.916 167.407 131.627 169.735 130.333C171.704 129.245 173.672 128.152 175.641 127.058C177.095 126.249 178.549 125.444 180.003 124.635C180.786 124.202 181.574 123.763 182.358 123.33C183.752 122.557 185.147 121.783 186.547 120.999L186.987 120.757C186.987 120.757 187.03 120.736 187.052 120.726C187.374 120.597 187.728 120.525 188.098 120.525C189.557 120.525 190.565 121.861 191.542 122.686C191.966 123.057 192.384 123.428 192.808 123.799L193.403 124.372L212.812 141.905C213.805 142.802 215.114 143.642 215.114 145.086C215.114 145.968 214.652 146.742 213.955 147.211L213.96 147.216Z" fill="white"/>
<path d="M173.137 92.5436C172.343 91.636 171.426 90.8006 170.519 89.9859C168.641 88.2842 166.758 86.5876 164.875 84.8859C162.166 82.4365 159.452 79.9819 156.737 77.5325C153.54 74.6396 150.338 71.7467 147.135 68.8538C143.793 65.8372 140.451 62.8154 137.109 59.7935C133.97 56.9574 130.832 54.1212 127.694 51.285C125.097 48.9439 122.506 46.6028 119.915 44.2616C118.215 42.7249 116.519 41.1882 114.819 39.6516C112.625 37.6714 110.559 35.9336 107.368 35.9336C106.885 35.9336 106.413 35.9748 105.951 36.047C101.896 36.6813 99.7767 40.3219 97.6363 43.3076C95.807 45.8705 93.9776 48.4282 92.143 50.9859C89.6914 54.4203 87.2344 57.8546 84.7775 61.289C82.1113 65.0172 79.4451 68.7455 76.7789 72.4738C74.3166 75.9133 71.8543 79.358 69.3919 82.8026C67.0584 86.0616 64.8321 89.398 62.3966 92.5848C60.9321 94.4928 59.6821 96.4266 59.6821 98.876C59.6821 102.939 63.0511 105.373 65.9586 107.802C68.8018 110.174 71.6451 112.551 74.4883 114.929C77.9859 117.847 81.4783 120.766 84.9706 123.685C87.9479 126.17 90.9199 128.656 93.8972 131.141C95.1793 132.214 96.4614 133.281 97.7435 134.354C99.0847 135.473 100.329 136.705 101.783 137.701C104.369 139.475 107.716 139.964 110.624 138.619C112.276 137.706 113.923 136.788 115.575 135.875C117.276 134.931 118.976 133.988 120.677 133.039C122.898 131.807 125.119 130.574 127.345 129.342C129.899 127.924 132.457 126.505 135.011 125.087C137.715 123.587 140.424 122.081 143.128 120.58C145.794 119.1 148.465 117.621 151.131 116.141C153.578 114.779 156.024 113.423 158.47 112.067C160.509 110.937 162.542 109.803 164.58 108.674C166.023 107.874 167.466 107.07 168.91 106.271C169.575 105.905 170.24 105.533 170.905 105.167C170.927 105.152 170.948 105.141 170.97 105.126C173.689 103.62 175.486 101.037 175.486 97.9581C175.486 95.7975 174.483 94.07 173.137 92.5436ZM160.772 99.3401C160.224 99.7217 159.591 100.031 159.028 100.34L113.134 125.809L109.916 127.599C109.283 127.929 108.478 128.027 107.689 127.748C106.617 127.372 105.951 126.335 105.951 125.242V51.7749C105.951 50.8931 105.994 50.1351 106.697 49.4441C106.954 49.1914 107.271 48.9955 107.614 48.8614C109.605 48.1034 110.833 49.7225 112.019 50.79L159.774 93.9359L161.313 95.3334C161.796 95.7975 162.097 96.442 162.097 97.1537C162.097 98.1541 161.517 98.8141 160.772 99.3401Z" fill="white"/>
<path d="M921 180.648C921 189.055 919.406 196.207 916.219 202.104C913.057 208.002 908.74 212.506 903.27 215.618C897.824 218.705 891.701 220.248 884.9 220.248C878.049 220.248 871.9 218.692 866.454 215.581C861.009 212.469 856.705 207.964 853.543 202.067C850.381 196.169 848.8 189.029 848.8 180.648C848.8 172.241 850.381 165.088 853.543 159.191C856.705 153.293 861.009 148.801 866.454 145.715C871.9 142.603 878.049 141.047 884.9 141.047C891.701 141.047 897.824 142.603 903.27 145.715C908.74 148.801 913.057 153.293 916.219 159.191C919.406 165.088 921 172.241 921 180.648ZM904.474 180.648C904.474 175.202 903.659 170.609 902.027 166.87C900.421 163.131 898.15 160.295 895.214 158.363C892.278 156.43 888.84 155.464 884.9 155.464C880.96 155.464 877.522 156.43 874.585 158.363C871.649 160.295 869.366 163.131 867.734 166.87C866.128 170.609 865.325 175.202 865.325 180.648C865.325 186.093 866.128 190.686 867.734 194.425C869.366 198.164 871.649 201 874.585 202.932C877.522 204.865 880.96 205.831 884.9 205.831C888.84 205.831 892.278 204.865 895.214 202.932C898.15 201 900.421 198.164 902.027 194.425C903.659 190.686 904.474 186.093 904.474 180.648Z" fill="#464646"/>
<path d="M843.235 142.156V155.595H808.377V219.25H792.078V142.156H843.235Z" fill="#464646"/>
<path d="M727.172 219.25V142.156H779.12V155.595H743.472V173.965H776.447V187.403H743.472V205.811H779.271V219.25H727.172Z" fill="#464646"/>
<path d="M717.263 206.639L716.209 237.394H701.415V219.25H695.128V206.639H717.263ZM617.32 142.156H633.243V206.15H655.377V142.156H671.225V206.15H693.096V142.156H708.944V219.25H617.32V142.156Z" fill="#464646"/>
<path d="M551.439 220.304V207.053H555.618C557.701 207.053 559.382 206.802 560.662 206.3C561.942 205.773 562.958 205.008 563.711 204.004C564.489 202.975 565.142 201.695 565.669 200.165L566.61 197.642L538.603 142.156H555.467L573.611 180.101L588.782 142.156H605.42L578.844 204.117C577.564 206.978 576.046 209.638 574.289 212.097C572.557 214.557 570.336 216.539 567.626 218.045C564.916 219.551 561.453 220.304 557.236 220.304H551.439Z" fill="#464646"/>
<path d="M455.4 237.845V206.263H460.632C462.414 204.983 464.045 203.176 465.526 200.842C467.007 198.483 468.274 195.233 469.328 191.092C470.382 186.927 471.135 181.481 471.587 174.755L473.77 142.156H524.776V206.263H533.209V237.77H517.549V219.25H471.06V237.845H455.4ZM479.454 206.263H509.117V155.595H488.451L487.246 174.755C486.92 179.85 486.38 184.367 485.627 188.307C484.9 192.247 484.009 195.698 482.955 198.659C481.926 201.595 480.759 204.13 479.454 206.263Z" fill="#464646"/>
<path d="M402.56 220.261V207.01H406.738C408.821 207.01 410.503 206.759 411.783 206.257C413.062 205.73 414.079 204.965 414.832 203.961C415.61 202.932 416.262 201.652 416.789 200.122L417.73 197.599L389.724 142.113H406.588L424.732 180.058L439.902 142.113H456.54L429.964 204.074C428.684 206.935 427.166 209.595 425.409 212.054C423.678 214.514 421.457 216.496 418.747 218.002C416.036 219.508 412.573 220.261 408.357 220.261H402.56Z" fill="#464646"/>
<path d="M325.194 219.207V142.113H376.351V155.552H341.493V170.609H354.029C360.127 170.609 365.384 171.601 369.801 173.583C374.243 175.541 377.669 178.314 380.078 181.902C382.487 185.491 383.691 189.719 383.691 194.588C383.691 199.431 382.487 203.71 380.078 207.424C377.669 211.113 374.243 213.999 369.801 216.082C365.384 218.165 360.127 219.207 354.029 219.207H325.194ZM341.493 206.107H354.029C356.94 206.107 359.399 205.58 361.407 204.526C363.414 203.447 364.933 202.029 365.962 200.272C367.016 198.49 367.543 196.545 367.543 194.437C367.543 191.376 366.376 188.791 364.042 186.683C361.733 184.55 358.395 183.483 354.029 183.483H341.493V206.107Z" fill="#464646"/>
<path d="M929.084 64.9842H947.454C953.577 64.9842 958.847 65.9755 963.264 67.9581C967.706 69.9155 971.131 72.6886 973.541 76.2772C975.95 79.8659 977.142 84.0945 977.117 88.963C977.142 93.8064 975.95 98.0852 973.541 101.799C971.131 105.488 967.706 108.374 963.264 110.457C958.847 112.54 953.577 113.582 947.454 113.582H918.657V36.4883H934.919V100.482H947.454C950.39 100.482 952.862 99.9548 954.87 98.9008C956.877 97.8217 958.395 96.4038 959.424 94.6471C960.478 92.8654 960.993 90.9205 960.968 88.8124C960.993 85.7508 959.838 83.1659 957.505 81.0579C955.196 78.9248 951.846 77.8582 947.454 77.8582H929.084V64.9842Z" fill="#464646"/>
<path d="M836.748 113.582V100.482L838.931 100.294C841.742 100.068 844.013 99.0012 845.745 97.094C847.476 95.1616 848.769 92.0874 849.622 87.8713C850.5 83.6302 851.065 77.9335 851.316 70.7813L852.596 36.4883H904.92V113.582H889.072V49.5505H867.728L866.524 76.3902C866.122 85.023 865.093 92.0748 863.437 97.5457C861.806 103.016 859.196 107.057 855.607 109.667C852.044 112.277 847.163 113.582 840.964 113.582H836.748Z" fill="#464646"/>
<path d="M776.023 113.582V36.4883H827.971V49.9269H792.322V68.2968H825.298V81.7355H792.322V100.143H828.121V113.582H776.023Z" fill="#464646"/>
<path d="M702.272 49.9269V36.4883H765.588V49.9269H741.986V113.582H725.875V49.9269H702.272Z" fill="#464646"/>
<path d="M627.262 36.4883H643.524V84.9728H644.164L677.478 36.4883H691.745V113.582H675.445V65.0595H674.88L641.378 113.582H627.262V36.4883Z" fill="#464646"/>
<path d="M615.191 75.0226C615.191 83.4296 613.597 90.5818 610.41 96.4793C607.248 102.377 602.932 106.881 597.461 109.993C592.015 113.08 585.892 114.623 579.091 114.623C572.24 114.623 566.092 113.067 560.646 109.956C555.2 106.844 550.896 102.339 547.734 96.4416C544.572 90.5442 542.991 83.4045 542.991 75.0226C542.991 66.6156 544.572 59.4634 547.734 53.5659C550.896 47.6685 555.2 43.1764 560.646 40.0896C566.092 36.9778 572.24 35.4219 579.091 35.4219C585.892 35.4219 592.015 36.9778 597.461 40.0896C602.932 43.1764 607.248 47.6685 610.41 53.5659C613.597 59.4634 615.191 66.6156 615.191 75.0226ZM598.666 75.0226C598.666 69.5769 597.85 64.9844 596.219 61.2452C594.613 57.5059 592.342 54.6701 589.405 52.7378C586.469 50.8054 583.031 49.8393 579.091 49.8393C575.151 49.8393 571.713 50.8054 568.777 52.7378C565.841 54.6701 563.557 57.5059 561.926 61.2452C560.32 64.9844 559.517 69.5769 559.517 75.0226C559.517 80.4683 560.32 85.0608 561.926 88.8C563.557 92.5393 565.841 95.3751 568.777 97.3074C571.713 99.2398 575.151 100.206 579.091 100.206C583.031 100.206 586.469 99.2398 589.405 97.3074C592.342 95.3751 594.613 92.5393 596.219 88.8C597.85 85.0608 598.666 80.4683 598.666 75.0226Z" fill="#464646"/>
<path d="M475.709 113.582V36.4883H506.125C511.972 36.4883 516.953 37.605 521.069 39.8385C525.185 42.0469 528.322 45.1211 530.48 49.0611C532.663 52.976 533.755 57.4932 533.755 62.6127C533.755 67.7322 532.651 72.2494 530.442 76.1643C528.234 80.0792 525.034 83.1283 520.843 85.3116C516.677 87.4949 511.633 88.5866 505.711 88.5866H486.324V75.5244H503.076C506.213 75.5244 508.797 74.9848 510.83 73.9057C512.888 72.8015 514.419 71.2832 515.423 69.3509C516.452 67.3934 516.966 65.1474 516.966 62.6127C516.966 60.053 516.452 57.8195 515.423 55.9122C514.419 53.9799 512.888 52.4867 510.83 51.4327C508.772 50.3536 506.162 49.814 503 49.814H492.009V113.582H475.709Z" fill="#464646"/>
<path d="M401.968 49.9269V36.4883H465.284V49.9269H441.682V113.582H425.571V49.9269H401.968Z" fill="#464646"/>
<path d="M393.216 63.4661H376.729C376.427 61.333 375.813 59.4383 374.884 57.782C373.956 56.1006 372.764 54.6701 371.308 53.4906C369.852 52.3112 368.171 51.4077 366.264 50.7803C364.382 50.1529 362.336 49.8393 360.128 49.8393C356.138 49.8393 352.662 50.8305 349.701 52.8131C346.74 54.7705 344.443 57.6314 342.812 61.3957C341.181 65.135 340.365 69.6773 340.365 75.0226C340.365 80.5185 341.181 85.1361 342.812 88.8753C344.468 92.6146 346.777 95.4378 349.738 97.3451C352.7 99.2523 356.125 100.206 360.015 100.206C362.198 100.206 364.219 99.9173 366.076 99.3401C367.958 98.763 369.627 97.9223 371.082 96.8181C372.538 95.6888 373.742 94.321 374.696 92.7149C375.675 91.1088 376.352 89.2769 376.729 87.219L393.216 87.2943C392.79 90.8328 391.723 94.2458 390.017 97.5333C388.335 100.796 386.064 103.719 383.203 106.304C380.367 108.864 376.98 110.897 373.04 112.402C369.125 113.883 364.695 114.623 359.752 114.623C352.875 114.623 346.727 113.067 341.306 109.956C335.911 106.844 331.645 102.339 328.508 96.4416C325.396 90.5442 323.84 83.4045 323.84 75.0226C323.84 66.6156 325.421 59.4634 328.583 53.5659C331.745 47.6685 336.036 43.1764 341.457 40.0896C346.878 36.9778 352.976 35.4219 359.752 35.4219C364.219 35.4219 368.359 36.0493 372.174 37.304C376.013 38.5588 379.414 40.3908 382.375 42.8C385.336 45.184 387.746 48.1077 389.603 51.5708C391.485 55.034 392.689 58.9991 393.216 63.4661Z" fill="#464646"/>
</svg>
